HIERARCHY
ROOT hips
{
	OFFSET -0.003675 0.299928 -0.021708
	CHANNELS 6 Xposition Yposition Zposition Xrotation Yrotation Zrotation
	JOINT LowerBack
	{
		OFFSET 0.000919 0.177588 0.009275
		CHANNELS 3 Xrotation Yrotation Zrotation
		JOINT spine
		{
			OFFSET 0.000919 0.177588 0.009275
			CHANNELS 3 Xrotation Yrotation Zrotation
			JOINT chest
			{
				OFFSET 0.000456 0.100015 0.004638
				CHANNELS 3 Xrotation Yrotation Zrotation
				JOINT neck
				{
					OFFSET 0.000456 0.100015 0.004638
					CHANNELS 3 Xrotation Yrotation Zrotation
					JOINT head
					{
						OFFSET 0.000924 0.155147 0.009274
						CHANNELS 6 Xposition Yposition Zposition Xrotation Yrotation Zrotation
						End Site
						{
							OFFSET 0.000000 0.153400 0.000000
						}
					}
				}
				JOINT shoulder.L
				{
					OFFSET 0.019937 0.078966 0.057518
					CHANNELS 6 Xposition Yposition Zposition Yrotation Xrotation Zrotation
					JOINT upper_arm.L
					{
						OFFSET 0.177024 -0.020465 -0.095062
						CHANNELS 6 Xposition Yposition Zposition Xrotation Yrotation Zrotation
						JOINT forearm.L
						{
							OFFSET 0.247100 -0.135500 -0.061800
							CHANNELS 3 Xrotation Yrotation Zrotation
							JOINT hand.L
							{
								OFFSET 0.217000 -0.143000 0.039300
								CHANNELS 3 Xrotation Yrotation Zrotation
								JOINT palm.01.L
								{
									OFFSET 0.021770 -0.038291 0.012954
									CHANNELS 6 Xposition Yposition Zposition Yrotation Xrotation Zrotation
									JOINT f_index.01.L
									{
										OFFSET 0.053215 -0.044137 0.008236
										CHANNELS 3 Xrotation Yrotation Zrotation
										JOINT f_index.02.L
										{
											OFFSET 0.036108 -0.024723 -0.010656
											CHANNELS 3 Xrotation Yrotation Zrotation
											JOINT f_index.03.L
											{
												OFFSET 0.021342 -0.014948 -0.010846
												CHANNELS 3 Xrotation Yrotation Zrotation
												End Site
												{
													OFFSET 0.015600 -0.009860 -0.013421
												}
											}
										}
									}
									JOINT thumb.01.L
									{
										OFFSET -0.009090 -0.002348 -0.024223
										CHANNELS 6 Xposition Yposition Zposition Xrotation Yrotation Zrotation
										JOINT thumb.02.L
										{
											OFFSET 0.019713 -0.035076 -0.011120
											CHANNELS 3 Xrotation Yrotation Zrotation
											JOINT thumb.03.L
											{
												OFFSET 0.024877 -0.021748 -0.005176
												CHANNELS 3 Xrotation Yrotation Zrotation
												End Site
												{
													OFFSET 0.016125 -0.013029 -0.001569
												}
											}
										}
									}
								}
								JOINT palm.02.L
								{
									OFFSET 0.032823 -0.025104 0.012281
									CHANNELS 6 Xposition Yposition Zposition Yrotation Xrotation Zrotation
									JOINT f_middle.01.L
									{
										OFFSET 0.055723 -0.038469 0.008037
										CHANNELS 3 Xrotation Yrotation Zrotation
										JOINT f_middle.02.L
										{
											OFFSET 0.038167 -0.027473 -0.015582
											CHANNELS 3 Xrotation Yrotation Zrotation
											JOINT f_middle.03.L
											{
												OFFSET 0.021707 -0.016587 -0.017037
												CHANNELS 3 Xrotation Yrotation Zrotation
												End Site
												{
													OFFSET 0.014112 -0.010584 -0.014294
												}
											}
										}
									}
								}
								JOINT palm.03.L
								{
									OFFSET 0.039230 -0.011402 0.008390
									CHANNELS 6 Xposition Yposition Zposition Yrotation Xrotation Zrotation
									JOINT f_ring.01.L
									{
										OFFSET 0.061796 -0.031470 0.007910
										CHANNELS 3 Xrotation Yrotation Zrotation
										JOINT f_ring.02.L
										{
											OFFSET 0.033092 -0.023401 -0.019127
											CHANNELS 3 Xrotation Yrotation Zrotation
											JOINT f_ring.03.L
											{
												OFFSET 0.021392 -0.015362 -0.017824
												CHANNELS 3 Xrotation Yrotation Zrotation
												End Site
												{
													OFFSET 0.008670 -0.007297 -0.014686
												}
											}
										}
									}
								}
								JOINT palm.04.L
								{
									OFFSET 0.043417 0.002450 0.002889
									CHANNELS 6 Xposition Yposition Zposition Yrotation Xrotation Zrotation
									JOINT f_pinky.01.L
									{
										OFFSET 0.069986 -0.026156 0.003627
										CHANNELS 3 Xrotation Yrotation Zrotation
										JOINT f_pinky.02.L
										{
											OFFSET 0.018520 -0.012813 -0.016429
											CHANNELS 3 Xrotation Yrotation Zrotation
											JOINT f_pinky.03.L
											{
												OFFSET 0.013822 -0.009796 -0.014947
												CHANNELS 3 Xrotation Yrotation Zrotation
												End Site
												{
													OFFSET 0.007238 -0.006103 -0.011657
												}
											}
										}
									}
								}
							}
						}
					}
				}
				JOINT shoulder.R
				{
					OFFSET -0.016662 0.078957 0.057696
					CHANNELS 6 Xposition Yposition Zposition Yrotation Xrotation Zrotation
					JOINT upper_arm.R
					{
						OFFSET -0.176972 -0.020537 -0.095144
						CHANNELS 6 Xposition Yposition Zposition Xrotation Yrotation Zrotation
						JOINT forearm.R
						{
							OFFSET -0.247100 -0.135500 -0.061800
							CHANNELS 3 Xrotation Yrotation Zrotation
							JOINT hand.R
							{
								OFFSET -0.217000 -0.143000 0.039300
								CHANNELS 3 Xrotation Yrotation Zrotation
								JOINT palm.01.R
								{
									OFFSET -0.021773 -0.038278 0.012988
									CHANNELS 6 Xposition Yposition Zposition Yrotation Xrotation Zrotation
									JOINT f_index.01.R
									{
										OFFSET -0.053212 -0.044139 0.008249
										CHANNELS 3 Xrotation Yrotation Zrotation
										JOINT f_index.02.R
										{
											OFFSET -0.036049 -0.024835 -0.010634
											CHANNELS 3 Xrotation Yrotation Zrotation
											JOINT f_index.03.R
											{
												OFFSET -0.021371 -0.014881 -0.010866
												CHANNELS 3 Xrotation Yrotation Zrotation
												End Site
												{
													OFFSET -0.015584 -0.009883 -0.013422
												}
											}
										}
									}
									JOINT thumb.01.R
									{
										OFFSET 0.009113 -0.002381 -0.024211
										CHANNELS 6 Xposition Yposition Zposition Xrotation Yrotation Zrotation
										JOINT thumb.02.R
										{
											OFFSET -0.019694 -0.035097 -0.011088
											CHANNELS 3 Xrotation Yrotation Zrotation
											JOINT thumb.03.R
											{
												OFFSET -0.024867 -0.021762 -0.005168
												CHANNELS 3 Xrotation Yrotation Zrotation
												End Site
												{
													OFFSET -0.016120 -0.013036 -0.001565
												}
											}
										}
									}
								}
								JOINT palm.02.R
								{
									OFFSET -0.032828 -0.025095 0.012286
									CHANNELS 6 Xposition Yposition Zposition Yrotation Xrotation Zrotation
									JOINT f_middle.01.R
									{
										OFFSET -0.055721 -0.038472 0.008040
										CHANNELS 3 Xrotation Yrotation Zrotation
										JOINT f_middle.02.R
										{
											OFFSET -0.038101 -0.027593 -0.015557
											CHANNELS 3 Xrotation Yrotation Zrotation
											JOINT f_middle.03.R
											{
												OFFSET -0.021730 -0.016530 -0.017054
												CHANNELS 3 Xrotation Yrotation Zrotation
												End Site
												{
													OFFSET -0.014096 -0.010608 -0.014293
												}
											}
										}
									}
								}
								JOINT palm.03.R
								{
									OFFSET -0.039192 -0.011488 0.008390
									CHANNELS 6 Xposition Yposition Zposition Yrotation Xrotation Zrotation
									JOINT f_ring.01.R
									{
										OFFSET -0.061839 -0.031387 0.007876
										CHANNELS 3 Xrotation Yrotation Zrotation
										JOINT f_ring.02.R
										{
											OFFSET -0.033068 -0.023437 -0.019125
											CHANNELS 3 Xrotation Yrotation Zrotation
											JOINT f_ring.03.R
											{
												OFFSET -0.021371 -0.015393 -0.017822
												CHANNELS 3 Xrotation Yrotation Zrotation
												End Site
												{
													OFFSET -0.008654 -0.007321 -0.014684
												}
											}
										}
									}
								}
								JOINT palm.04.R
								{
									OFFSET -0.043421 0.002443 0.002845
									CHANNELS 6 Xposition Yposition Zposition Yrotation Xrotation Zrotation
									JOINT f_pinky.01.R
									{
										OFFSET -0.069983 -0.026169 0.003599
										CHANNELS 3 Xrotation Yrotation Zrotation
										JOINT f_pinky.02.R
										{
											OFFSET -0.018501 -0.012842 -0.016428
											CHANNELS 3 Xrotation Yrotation Zrotation
											JOINT f_pinky.03.R
											{
												OFFSET -0.013806 -0.009821 -0.014946
												CHANNELS 3 Xrotation Yrotation Zrotation
												End Site
												{
													OFFSET -0.007226 -0.006121 -0.011655
												}
											}
										}
									}
								}
							}
						}
					}
				}
			}
		}
	}
	JOINT pelvis.L
	{
		OFFSET 0.000000 0.000000 0.000000
		CHANNELS 6 Xposition Yposition Zposition Xrotation Yrotation Zrotation
		JOINT thigh.L
		{
			OFFSET 0.101675 0.001054 -0.000000
			CHANNELS 3 Xrotation Yrotation Zrotation
			JOINT shin.L
			{
				OFFSET 0.000000 -0.534800 0.041000
				CHANNELS 3 Xrotation Yrotation Zrotation
				JOINT foot.L
				{
					OFFSET 0.000000 -0.452000 -0.044800
					CHANNELS 3 Xrotation Yrotation Zrotation
					JOINT toe.L
					{
						OFFSET -0.000000 -0.068500 0.109600
						CHANNELS 3 Xrotation Yrotation Zrotation
						End Site
						{
							OFFSET -0.000000 0.000000 0.067200
						}
					}
				}
				JOINT heel.L
				{
					OFFSET 0.000000 -0.452000 -0.044800
					CHANNELS 3 Xrotation Yrotation Zrotation
					JOINT heel.02.L
					{
						OFFSET -0.038000 -0.085200 0.016200
						CHANNELS 6 Xposition Yposition Zposition Xrotation Yrotation Zrotation
						End Site
						{
							OFFSET 0.080000 -0.000000 0.000000
						}
					}
				}
			}
		}
	}
	JOINT pelvis.R
	{
		OFFSET 0.000000 0.000000 0.000000
		CHANNELS 6 Xposition Yposition Zposition Xrotation Yrotation Zrotation
		JOINT thigh.R
		{
			OFFSET -0.094325 0.001054 0.000000
			CHANNELS 3 Xrotation Yrotation Zrotation
			JOINT shin.R
			{
				OFFSET 0.000000 -0.534800 0.041000
				CHANNELS 3 Xrotation Yrotation Zrotation
				JOINT foot.R
				{
					OFFSET 0.000000 -0.452000 -0.044800
					CHANNELS 3 Xrotation Yrotation Zrotation
					JOINT toe.R
					{
						OFFSET -0.000000 -0.068500 0.109600
						CHANNELS 3 Xrotation Yrotation Zrotation
						End Site
						{
							OFFSET -0.000000 0.000000 0.067200
						}
					}
				}
				JOINT heel.R
				{
					OFFSET 0.000000 -0.452000 -0.044800
					CHANNELS 3 Xrotation Yrotation Zrotation
					JOINT heel.02.R
					{
						OFFSET 0.038000 -0.085200 0.016200
						CHANNELS 6 Xposition Yposition Zposition Xrotation Yrotation Zrotation
						End Site
						{
							OFFSET -0.080000 0.000000 -0.000000
						}
					}
				}
			}
		}
	}
}
MOTION
Frames: 4
Frame Time: 0.041667
0.001509 0.274248 -0.019909 -149.198693 -93.904542 -145.328722 -0.000000 0.000000 -0.000000 -0.000000 0.000000 0.000000 0.000000 0.000000 -0.000000 0.000001 0.000000 -0.000000 0.000924 0.155148 0.009274 22.148896 -0.020753 -3.201763 0.019937 0.078966 0.057518 5.542777 7.712720 41.668781 0.177025 -0.020465 -0.095062 -48.419406 0.432893 -43.105737 -13.874413 -9.394380 -398.441599 0.000003 0.000003 0.000001 0.021770 -0.038291 0.012954 0.000001 -0.000001 -0.000000 0.000002 -0.000000 0.000001 0.000000 -0.000006 0.000006 0.000002 -0.000002 -0.000001 -0.009090 -0.002348 -0.024224 0.000003 0.000000 0.000001 0.000000 0.000004 0.000001 -0.000003 -0.000002 -0.000001 0.032823 -0.025104 0.012281 -0.000001 0.000000 0.000002 -0.000001 0.000003 -0.000001 -0.000004 -0.000002 -0.000000 0.000002 -0.000002 0.000004 0.039230 -0.011402 0.008390 -0.000000 -0.000001 0.000004 -0.000000 0.000001 0.000001 0.000005 0.000003 0.000001 0.000004 -0.000001 0.000002 0.043417 0.002450 0.002889 -0.000002 -0.000003 -0.000002 -0.000004 -0.000004 0.000001 -0.000001 -0.000002 -0.000000 -0.000002 0.000002 -0.000001 -0.016662 0.078957 0.057696 4.225436 7.787213 -45.553639 -0.176972 -0.020537 -0.095144 -73.696730 34.233065 34.193426 156.901603 141.364302 174.650587 -0.000003 0.000004 -0.000001 -0.021773 -0.038278 0.012988 -0.000000 0.000003 -0.000002 -0.000004 0.000001 0.000001 -0.000000 0.000003 -0.000004 -0.000003 0.000000 0.000001 0.009113 -0.002381 -0.024211 -0.000002 -0.000003 0.000002 -0.000002 -0.000001 0.000002 0.000000 0.000001 -0.000003 -0.032828 -0.025095 0.012286 0.000001 0.000000 0.000001 -0.000003 0.000000 0.000004 0.000002 -0.000002 -0.000006 -0.000002 0.000002 -0.000003 -0.039192 -0.011488 0.008390 -0.000001 0.000002 0.000003 0.000000 0.000009 -0.000002 -0.000002 0.000002 -0.000002 0.000003 0.000004 -0.000000 -0.043421 0.002443 0.002845 0.000000 0.000000 -0.000001 -0.000002 0.000005 -0.000001 0.000003 -0.000000 0.000003 0.000002 -0.000001 -0.000002 0.000000 0.000000 -0.000000 -1.490445 0.173977 -3.240100 -22.513391 -0.440588 -4.307711 35.174040 -0.358122 3.617678 0.000000 -0.000000 0.000000 0.000001 0.000000 0.000000 -0.000003 -0.000000 0.000000 -0.038000 -0.085200 0.016200 -0.000000 0.000000 0.000000 0.000000 0.000000 -0.000000 -1.453222 0.172260 -2.006028 -23.326518 -0.035939 -2.312533 40.187129 -0.322034 3.251690 0.000000 -0.000000 0.000000 0.000002 -0.000000 0.000000 0.000012 -0.000000 0.000000 0.038000 -0.085200 0.016200 -0.000003 -0.000000 0.000000 
0.000764 0.275277 -0.020363 -146.233872 -95.089566 -146.012765 0.000000 -0.000000 0.000000 0.000000 0.000000 0.000000 0.000000 0.000000 -0.000000 0.000000 0.000000 -0.000000 0.000924 0.155147 0.009274 26.378293 -0.021122 -5.684231 0.019937 0.078966 0.057518 11.906977 7.411017 35.822198 0.177024 -0.020465 -0.095062 -33.848211 4.646559 -45.411513 -26.531735 -8.690471 -412.207463 -0.000004 0.000001 0.000003 0.021770 -0.038291 0.012954 -0.000001 0.000001 -0.000004 -0.000001 -0.000000 -0.000000 0.000000 -0.000000 0.000005 0.000001 0.000003 -0.000000 -0.009090 -0.002348 -0.024224 -0.000001 -0.000002 0.000004 0.000002 0.000000 0.000006 0.000000 -0.000000 0.000001 0.032823 -0.025104 0.012281 -0.000000 0.000002 0.000004 0.000000 -0.000001 -0.000003 -0.000003 0.000000 0.000001 -0.000001 0.000001 0.000003 0.039230 -0.011402 0.008390 -0.000000 0.000001 0.000008 0.000002 0.000005 -0.000000 -0.000000 0.000001 0.000001 -0.000002 -0.000003 0.000004 0.043417 0.002450 0.002889 -0.000001 0.000001 -0.000002 0.000002 0.000001 -0.000002 0.000001 -0.000003 0.000001 0.000001 -0.000003 -0.000001 -0.016662 0.078957 0.057696 3.082890 8.475828 -48.953547 -0.176972 -0.020537 -0.095144 -36.148397 42.448550 7.517693 170.366187 147.151686 158.215718 -0.000002 0.000000 0.000000 -0.021773 -0.038278 0.012988 0.000001 -0.000001 0.000000 0.000001 0.000003 -0.000001 -0.000002 -0.000002 -0.000005 0.000002 -0.000005 0.000004 0.009114 -0.002381 -0.024211 0.000001 0.000001 0.000003 0.000001 0.000001 0.000000 -0.000001 -0.000003 -0.000003 -0.032828 -0.025095 0.012286 0.000000 -0.000000 0.000001 -0.000001 0.000005 -0.000003 0.000001 -0.000000 -0.000001 -0.000000 0.000004 0.000001 -0.039192 -0.011488 0.008390 -0.000000 0.000001 0.000001 -0.000002 0.000002 -0.000003 -0.000002 -0.000003 -0.000002 -0.000001 -0.000003 -0.000003 -0.043420 0.002443 0.002844 -0.000003 0.000001 0.000002 -0.000003 0.000002 -0.000002 -0.000002 -0.000003 -0.000003 -0.000001 -0.000004 0.000002 -0.000000 0.000000 -0.000000 -1.482437 -0.027378 -0.672163 -22.137767 -0.390617 -3.661331 30.613383 -0.471522 4.764926 -0.000003 -0.000000 0.000000 0.000005 -0.000000 -0.000000 -0.000003 0.000000 0.000000 -0.038000 -0.085200 0.016200 0.000003 -0.000000 -0.000000 -0.000000 0.000000 -0.000000 -1.451423 -0.027417 0.562036 -25.042562 0.010334 -1.822582 40.934212 -0.062851 0.635022 0.000000 0.000000 -0.000000 0.000006 0.000000 0.000000 0.000003 0.000000 -0.000000 0.038000 -0.085200 0.016200 0.000002 0.000000 0.000000 
0.000961 0.277447 -0.020754 -141.695184 -93.923857 -141.919610 -0.000000 -0.000000 -0.000000 -0.000000 -0.000001 -0.000000 0.000000 -0.000000 -0.000000 0.000000 -0.000000 0.000000 0.000924 0.155147 0.009274 30.839038 -0.018250 -4.976265 0.019937 0.078966 0.057518 0.781443 6.010949 36.395448 0.177024 -0.020466 -0.095062 -31.038599 7.534252 -48.346179 -33.629468 -10.124531 -409.770834 -0.000003 -0.000001 -0.000000 0.021770 -0.038291 0.012954 0.000002 0.000003 -0.000001 0.000001 -0.000000 0.000003 -0.000002 0.000003 0.000005 -0.000002 -0.000002 -0.000004 -0.009090 -0.002348 -0.024224 -0.000001 -0.000005 -0.000002 0.000003 0.000003 0.000003 0.000002 0.000001 0.000001 0.032823 -0.025104 0.012281 -0.000000 0.000001 0.000004 -0.000000 0.000003 -0.000003 -0.000002 0.000005 0.000001 -0.000003 -0.000006 0.000004 0.039230 -0.011402 0.008390 0.000001 0.000001 0.000001 -0.000000 0.000002 -0.000002 -0.000002 0.000003 0.000001 0.000003 -0.000002 0.000003 0.043417 0.002450 0.002889 -0.000001 -0.000000 -0.000005 -0.000000 -0.000004 -0.000002 0.000004 -0.000000 -0.000001 -0.000000 -0.000003 -0.000001 -0.016662 0.078957 0.057696 -8.417932 8.257463 -42.064133 -0.176972 -0.020537 -0.095144 -29.266575 25.779408 10.068897 199.923066 132.150773 114.346738 0.000001 0.000001 0.000002 -0.021773 -0.038278 0.012988 0.000001 -0.000002 -0.000003 -0.000002 0.000001 0.000001 -0.000000 0.000001 -0.000001 -0.000002 0.000005 0.000003 0.009114 -0.002381 -0.024212 0.000001 -0.000002 -0.000003 -0.000002 -0.000000 -0.000007 -0.000001 -0.000004 0.000001 -0.032828 -0.025095 0.012286 0.000002 -0.000001 -0.000001 0.000001 0.000006 0.000002 0.000006 -0.000000 -0.000004 -0.000001 0.000006 -0.000005 -0.039192 -0.011488 0.008390 0.000001 -0.000001 -0.000004 0.000004 0.000002 -0.000003 -0.000004 -0.000001 -0.000004 -0.000003 0.000002 -0.000003 -0.043421 0.002443 0.002844 0.000003 -0.000001 0.000000 -0.000005 -0.000001 -0.000002 -0.000001 -0.000000 -0.000002 -0.000004 0.000003 0.000002 0.000000 0.000000 0.000000 -1.486683 -0.008352 -0.915143 -20.387859 -0.293371 -2.474586 29.574436 -0.023290 0.237021 0.000000 0.000000 -0.000000 -0.000001 -0.000000 -0.000000 0.000005 0.000000 -0.000000 -0.038000 -0.085200 0.016200 -0.000004 0.000000 0.000000 0.000000 0.000000 0.000000 -1.455013 -0.008529 0.319060 -22.820644 0.166762 0.348736 39.605323 0.032593 -0.327953 -0.000002 0.000000 -0.000000 0.000006 -0.000000 0.000000 0.000005 0.000000 -0.000000 0.038000 -0.085200 0.016200 -0.000001 0.000000 -0.000000 
0.001438 0.276637 -0.021114 -144.514877 -97.706696 -146.371651 -0.000000 0.000001 -0.000001 0.000001 0.000000 -0.000000 0.000000 -0.000000 0.000000 0.000001 0.000000 0.000000 0.000924 0.155148 0.009274 25.958786 -0.021210 -2.756044 0.019937 0.078966 0.057518 -6.019908 4.177428 33.154210 0.177025 -0.020465 -0.095062 -30.245246 12.371791 -56.168583 -15.920018 -9.656542 -401.674573 -0.000003 0.000003 -0.000003 0.021770 -0.038291 0.012954 -0.000002 -0.000002 -0.000000 0.000000 0.000001 -0.000004 -0.000000 0.000001 0.000005 0.000001 0.000002 0.000002 -0.009090 -0.002348 -0.024223 0.000003 0.000003 -0.000006 -0.000002 -0.000004 0.000003 0.000001 -0.000002 -0.000002 0.032823 -0.025104 0.012281 -0.000001 -0.000000 0.000004 0.000001 0.000003 -0.000003 -0.000005 0.000001 0.000003 -0.000001 -0.000003 0.000000 0.039230 -0.011402 0.008390 -0.000002 -0.000000 0.000006 0.000002 0.000006 -0.000000 -0.000001 0.000005 0.000005 -0.000002 -0.000002 0.000003 0.043417 0.002450 0.002889 -0.000002 -0.000003 -0.000003 -0.000001 0.000001 -0.000001 -0.000001 -0.000000 0.000001 0.000001 0.000000 -0.000004 -0.016662 0.078957 0.057696 -10.184014 8.074031 -41.395188 -0.176972 -0.020537 -0.095144 -30.709439 34.038777 6.921249 223.729950 177.386378 68.473398 -0.000001 0.000002 -0.000002 -0.021773 -0.038278 0.012988 0.000001 -0.000002 0.000002 -0.000001 0.000003 -0.000001 0.000002 -0.000000 -0.000003 0.000003 0.000003 -0.000000 0.009114 -0.002381 -0.024211 0.000005 -0.000002 -0.000001 -0.000002 0.000001 -0.000005 -0.000003 -0.000001 -0.000001 -0.032828 -0.025095 0.012286 0.000003 -0.000002 -0.000003 -0.000002 0.000003 0.000001 0.000003 -0.000001 -0.000001 0.000002 0.000003 -0.000004 -0.039192 -0.011488 0.008390 0.000003 0.000004 -0.000002 0.000001 0.000005 -0.000002 -0.000002 0.000000 -0.000000 -0.000001 -0.000002 -0.000003 -0.043421 0.002443 0.002845 0.000003 -0.000001 -0.000003 -0.000009 0.000005 -0.000001 -0.000001 -0.000001 0.000000 -0.000002 -0.000000 -0.000000 0.000000 0.000000 -0.000000 -1.542877 -0.126045 0.573307 -23.725010 -0.314218 -2.560551 34.448250 0.211021 -2.127483 0.000000 -0.000000 -0.000000 0.000000 -0.000000 -0.000001 0.000003 0.000000 -0.000001 -0.038000 -0.085200 0.016200 0.000002 -0.000000 -0.000000 0.000000 0.000000 0.000000 -1.513539 -0.125446 1.807570 -24.219593 0.302843 2.018084 39.611259 0.069121 -0.696574 0.000000 -0.000001 -0.000000 0.000001 -0.000000 -0.000000 0.000002 -0.000001 0.000000 0.038000 -0.085200 0.016200 0.000002 0.000000 0.000000 
